<svg xmlns="http://www.w3.org/2000/svg" width="48" height="40" viewBox="0 0 48 40">
  <metadata><?xpacket begin="﻿" id="W5M0MpCehiHzreSzNTczkc9d"?>
<x:xmpmeta xmlns:x="adobe:ns:meta/" x:xmptk="Adobe XMP Core 5.6-c138 79.159824, 2016/09/14-01:09:01        ">
   <rdf:RDF xmlns:rdf="http://www.w3.org/1999/02/22-rdf-syntax-ns#">
      <rdf:Description rdf:about=""/>
   </rdf:RDF>
</x:xmpmeta>
                                                                                                    
                                                                                                    
                                                                                                    
                                                                                                    
                                                                                                    
                                                                                                    
                                                                                                    
                                                                                                    
                                                                                                    
                                                                                                    
                                                                                                    
                                                                                                    
                                                                                                    
                                                                                                    
                                                                                                    
                                                                                                    
                                                                                                    
                                                                                                    
                                                                                                    
                                                                                                    
                           
<?xpacket end="w"?></metadata>
<defs>
    <style>
      .cls-1 {
        fill: #fff;
        fill-rule: evenodd;
      }
    </style>
  </defs>
  <path id="Logo" class="cls-1" d="M20.962,10.388A10.719,10.719,0,0,0,10.385,21.374a8.226,8.226,0,0,0,8.281,8.244h1.442a5.73,5.73,0,0,0,5.716-5.745h0a3.407,3.407,0,0,0-3.442-3.416,2.323,2.323,0,0,0-1.659.744l-0.618.66a1.621,1.621,0,0,1-2.153.226,1.593,1.593,0,0,1-.2-2.341l0.4-.438a5.877,5.877,0,0,1,4.327-1.9h0a6.4,6.4,0,0,1,6.384,6.416h0a8.828,8.828,0,0,1-8.806,8.851H18.677A11.415,11.415,0,0,1,7.291,21.228h0A13.865,13.865,0,0,1,21.12,7.328H40.709A7.31,7.31,0,0,0,48,0H21.2A21.255,21.255,0,0,0,0,21.309H0A18.644,18.644,0,0,0,18.6,40h1.548a15.744,15.744,0,0,0,15.7-15.784V23.409a13.144,13.144,0,0,0-1.593-6.31h1.9a6.7,6.7,0,0,0,6.684-6.718h0Z"/>
</svg>
